<?xml version="1.0" encoding="UTF-8" standalone="no"?><svg xmlns="http://www.w3.org/2000/svg" xmlns:xlink="http://www.w3.org/1999/xlink" data-name="Layer 2" fill="#000000" height="292.6" preserveAspectRatio="xMidYMid meet" version="1" viewBox="-0.0 -0.1 208.1 292.6" width="208.1" zoomAndPan="magnify"><g id="change1_1"><path d="M197.968,66.955a1.494,1.494,0,0,1-.575-.115L158.074,50.5a1.5,1.5,0,0,1-.433-2.5l42-38.106a1.5,1.5,0,0,1,2.506,1.184l-2.681,54.447a1.5,1.5,0,0,1-1.5,1.426Zm-36.56-18.318,35.167,14.615,2.4-48.7Z" fill="#422f01"/></g><g id="change1_2"><path d="M158.648,50.615a1.491,1.491,0,0,1-.58-.117l-22.5-9.447a1.5,1.5,0,0,1-.385-2.531L180.559.352a1.5,1.5,0,0,1,1.634-.2l19.124,9.509a1.5,1.5,0,0,1-1.336,2.687L181.738,3.281,138.992,39.236l20.238,8.5a1.5,1.5,0,0,1-.582,2.883Z" fill="#422f01"/></g><g id="change1_3"><path d="M78.479,203.551a1.5,1.5,0,0,1-.561-.109l-14.553-5.873a1.459,1.459,0,0,1-.249-.127L48.18,187.867a1.5,1.5,0,0,1-.539-1.919L89,100.927a1.5,1.5,0,0,1,.966-.794L129.9,89.585l21.18-43.736a1.5,1.5,0,1,1,2.7,1.307L132.3,91.513a1.5,1.5,0,0,1-.966.8L91.4,102.858l-40.477,83.2,13.7,8.778,13.114,5.292L112.1,127.875a1.5,1.5,0,0,1,.975-.807l36.382-9.535,31.368-59.35a1.5,1.5,0,1,1,2.652,1.4l-31.675,59.934a1.5,1.5,0,0,1-.946.75l-36.347,9.526L79.833,202.7A1.5,1.5,0,0,1,78.479,203.551Z" fill="#422f01"/></g><g id="change1_4"><path d="M63.925,197.679a1.5,1.5,0,0,1-1.349-2.154l41.362-85.277a1.5,1.5,0,0,1,.993-.8l36.875-9.031,25.265-47.947a1.5,1.5,0,0,1,2.654,1.4L144.146,102.41a1.5,1.5,0,0,1-.971.758l-36.845,9.024L65.275,196.833A1.5,1.5,0,0,1,63.925,197.679Z" fill="#422f01"/></g><g id="change1_5"><path d="M19.117,104.423a1.492,1.492,0,0,1-.847-.262L.652,92.1a1.5,1.5,0,0,1,.053-2.509l13.788-8.617a1.5,1.5,0,0,1,1.6.008L34.669,92.851a1.5,1.5,0,0,1-.038,2.551l-14.744,8.809A1.5,1.5,0,0,1,19.117,104.423ZM4.239,90.917l14.933,10.226,11.837-7.071L15.279,84.017Z" fill="#422f01"/></g><g id="change1_6"><path d="M20.676,292.466a1.493,1.493,0,0,1-.761-.208L.739,280.96A1.5,1.5,0,0,1,0,279.668V90.86a1.5,1.5,0,0,1,3,0V278.811l16.154,9.517L17.617,102.936a1.5,1.5,0,0,1,1.488-1.513h.012a1.5,1.5,0,0,1,1.5,1.488l1.559,188.042a1.5,1.5,0,0,1-1.5,1.513Z" fill="#422f01"/></g><g id="change1_7"><path d="M20.678,292.466a1.5,1.5,0,0,1-.751-2.8L204.894,183.057V167.913l-19.2-11.731L34.619,244.58a1.5,1.5,0,0,1-1.515-2.59l151.852-88.851a1.505,1.505,0,0,1,1.54.014l20.68,12.639a1.5,1.5,0,0,1,.718,1.28v16.852a1.5,1.5,0,0,1-.751,1.3L21.425,292.266A1.49,1.49,0,0,1,20.678,292.466Z" fill="#422f01"/></g><g id="change1_8"><path d="M33.862,269.3a1.5,1.5,0,0,1-1.5-1.5V94.115a1.5,1.5,0,0,1,3,0V265.184l170.276-99.407a1.5,1.5,0,0,1,1.512,2.591L34.618,269.091A1.494,1.494,0,0,1,33.862,269.3Z" fill="#422f01"/></g></svg>