<?xml version="1.0" encoding="UTF-8" standalone="no"?><svg xmlns="http://www.w3.org/2000/svg" xmlns:xlink="http://www.w3.org/1999/xlink" data-name="Layer 1" fill="#000000" height="318.7" preserveAspectRatio="xMidYMid meet" version="1" viewBox="-0.1 -0.1 399.4 318.7" width="399.4" zoomAndPan="magnify"><g id="change1_1"><path d="M130.3,318.584a1.514,1.514,0,0,1-.752-.2L.752,243.753a1.5,1.5,0,0,1-.748-1.3V156.992a1.5,1.5,0,0,1,2.252-1.3l128.795,74.629a1.5,1.5,0,0,1,.748,1.3v85.462a1.5,1.5,0,0,1-1.5,1.5ZM3,241.591l125.8,72.89V232.486L3,159.6Z" fill="#422f01"/></g><g id="change1_2"><path d="M220.92,178.368,95.684,103.1a1.5,1.5,0,0,1,.02-2.587l83.979-48.8a1.5,1.5,0,0,1,1.512,0L308.274,126.24a1.5,1.5,0,0,1,.741,1.258l2.025,84.273a1.5,1.5,0,0,1-.741,1.329L223.18,264.266a1.488,1.488,0,0,1-2.26-1.284V178.368m85.115-49.952-125.6-73.66L99.4,101.839l123.787,74.394a1.5,1.5,0,0,1,.728,1.286v82.843l84.1-49.393-1.984-82.553" fill="#422f01"/></g><g id="change1_3"><path d="M53.393,176.151A1.5,1.5,0,0,1,52.045,174c4.864-10,6.14-18.36,3.689-24.184a12.2,12.2,0,0,0-6.752-6.786,1.5,1.5,0,0,1,.926-2.853,15.206,15.206,0,0,1,8.558,8.4c2.879,6.747,1.626,15.742-3.724,26.737A1.5,1.5,0,0,1,53.393,176.151Z" fill="#422f01"/></g><g id="change1_4"><path d="M153.636,207.447a1.5,1.5,0,0,1-.865-.275c-25.541-18.082-44-.885-44.774-.144a1.5,1.5,0,0,1-2.08-2.161c.206-.2,20.978-19.689,48.587-.145a1.5,1.5,0,0,1-.868,2.725Z" fill="#422f01"/></g><g id="change1_5"><path d="M267.928,36.01c-11.9,0-21.254-8.838-21.662-9.23a1.5,1.5,0,0,1,2.076-2.165c.1.091,9.649,9.069,20.9,8.354,6.281-.4,12-3.73,17.01-9.9a1.5,1.5,0,0,1,2.364,1.848l-.034.041c-5.564,6.858-12.014,10.558-19.178,11.007C268.911,36,268.418,36.01,267.928,36.01Z" fill="#422f01"/></g><g id="change1_6"><path d="M352.161,91.44a1.5,1.5,0,0,1-.694-.171c-8-4.182-11.972-8.828-11.79-13.809.328-9.007,14.347-15.175,14.944-15.433a1.5,1.5,0,0,1,1.192,2.753c-3.582,1.554-12.926,6.882-13.139,12.792-.133,3.725,3.292,7.438,10.182,11.038a1.5,1.5,0,0,1-.695,2.83Z" fill="#422f01"/></g><g id="change1_7"><path d="M111.153,182.491c-14.7,0-26.213-6.954-26.213-15.831s11.514-15.832,26.213-15.832,26.213,6.954,26.213,15.832S125.852,182.491,111.153,182.491Zm0-28.663c-12.583,0-23.213,5.876-23.213,12.832s10.63,12.831,23.213,12.831,23.213-5.876,23.213-12.831S123.736,153.828,111.153,153.828Z" fill="#422f01"/></g><g id="change1_8"><path d="M286.522,81.339c-14.7,0-26.213-6.954-26.213-15.831s11.514-15.832,26.213-15.832,26.214,6.955,26.214,15.832S301.221,81.339,286.522,81.339Zm0-28.663c-12.583,0-23.213,5.876-23.213,12.832s10.63,12.831,23.213,12.831,23.214-5.876,23.214-12.831S299.1,52.676,286.522,52.676Z" fill="#422f01"/></g><g id="change1_9"><path d="M188.266,158.492h-.06c-28.076-1.108-43.275-11.11-51.081-19.306-8.55-8.976-10.336-17.643-10.408-18.007a1.5,1.5,0,0,1,2.943-.583c.021.1,1.755,8.317,9.77,16.66,7.428,7.733,21.941,17.175,48.894,18.238a1.5,1.5,0,1,1-.058,3Z" fill="#422f01"/></g><g id="change1_10"><path d="M264.416,103.768a1.5,1.5,0,0,1-1.381-.912c-14.223-33.384-48.655-29.581-50.114-29.4a1.5,1.5,0,0,1-.367-2.978h0c.382-.047,38.12-4.286,53.241,31.206a1.5,1.5,0,0,1-1.379,2.088Z" fill="#422f01"/></g><g id="change1_11"><path d="M130.309,245.745a1.491,1.491,0,0,1-.758-.207L.742,170.091A1.5,1.5,0,1,1,2.259,167.5l128.046,75,91.323-54.09A1.5,1.5,0,1,1,223.157,191l-92.083,54.541A1.518,1.518,0,0,1,130.309,245.745Z" fill="#422f01"/></g><g id="change1_12"><path d="M308.332,140.3a1.5,1.5,0,0,1-.766-2.791l86.394-51.17a1.5,1.5,0,1,1,1.529,2.581L309.1,140.094A1.5,1.5,0,0,1,308.332,140.3Z" fill="#422f01"/></g><g id="change1_13"><path d="M130.309,258.766a1.491,1.491,0,0,1-.753-.2L.747,183.788A1.5,1.5,0,1,1,2.253,181.2L130.3,255.528l91.327-53.9a1.5,1.5,0,0,1,1.525,2.584l-92.084,54.342A1.494,1.494,0,0,1,130.309,258.766Z" fill="#422f01"/></g><g id="change1_14"><path d="M308.332,153.708a1.5,1.5,0,0,1-.764-2.792l86.394-50.984a1.5,1.5,0,1,1,1.525,2.584L309.094,153.5A1.5,1.5,0,0,1,308.332,153.708Z" fill="#422f01"/></g><g id="change1_15"><path d="M130.6,273.356a1.5,1.5,0,0,1-.76-.207L.741,197.322a1.5,1.5,0,1,1,1.519-2.586l128.329,75.376,91.033-54.51a1.5,1.5,0,1,1,1.541,2.574l-91.8,54.967A1.5,1.5,0,0,1,130.6,273.356Z" fill="#422f01"/></g><g id="change1_16"><path d="M308.332,166.929a1.5,1.5,0,0,1-.772-2.788l87.192-52.209a1.5,1.5,0,0,1,1.541,2.574L309.1,166.715A1.486,1.486,0,0,1,308.332,166.929Z" fill="#422f01"/></g><g id="change1_17"><path d="M130.293,285.74a1.5,1.5,0,0,1-.768-.212L.732,208.736a1.5,1.5,0,1,1,1.536-2.576l128.024,76.333,91.33-54.689a1.5,1.5,0,1,1,1.541,2.574l-92.1,55.149A1.509,1.509,0,0,1,130.293,285.74Z" fill="#422f01"/></g><g id="change1_18"><path d="M308.84,178.827a1.5,1.5,0,0,1-.772-2.788l87.457-52.368a1.5,1.5,0,1,1,1.541,2.574l-87.457,52.369A1.5,1.5,0,0,1,308.84,178.827Z" fill="#422f01"/></g><g id="change1_19"><path d="M130.6,297.943a1.51,1.51,0,0,1-.766-.21L.735,221.168a1.5,1.5,0,1,1,1.531-2.58L130.593,294.7l91.029-54.508a1.5,1.5,0,1,1,1.541,2.574l-91.8,54.967A1.508,1.508,0,0,1,130.6,297.943Z" fill="#422f01"/></g><g id="change1_20"><path d="M309.282,190.947a1.5,1.5,0,0,1-.771-2.787l87.522-52.409a1.5,1.5,0,1,1,1.541,2.575l-87.522,52.408A1.5,1.5,0,0,1,309.282,190.947Z" fill="#422f01"/></g><g id="change1_21"><path d="M130.293,308.93a1.493,1.493,0,0,1-.761-.208L.739,232.834a1.5,1.5,0,1,1,1.523-2.584l128.025,75.435,91.335-54.691a1.5,1.5,0,1,1,1.541,2.574l-92.1,55.149A1.5,1.5,0,0,1,130.293,308.93Z" fill="#422f01"/></g><g id="change1_22"><path d="M309.282,201.752a1.5,1.5,0,0,1-.771-2.787l87.965-52.674a1.5,1.5,0,1,1,1.541,2.575l-87.965,52.673A1.491,1.491,0,0,1,309.282,201.752Z" fill="#422f01"/></g><g id="change1_23"><path d="M130.293,233.042a1.493,1.493,0,0,1-.751-.2L.749,158.271a1.5,1.5,0,0,1,0-2.594L267.809.2a1.5,1.5,0,0,1,1.516,0l125.65,73.979a1.5,1.5,0,0,1,0,2.583L307.51,128.492a1.5,1.5,0,0,1-1.528-2.582l85.28-50.429L268.56,3.238,4.488,156.97l125.8,72.834,90.421-53.469a1.5,1.5,0,1,1,1.527,2.582l-91.177,53.916A1.49,1.49,0,0,1,130.293,233.042Z" fill="#422f01"/></g><g id="change1_24"><path d="M130.6,318.51a1.5,1.5,0,0,1-.762-2.793l92.17-54.223L397.015,158.777a1.5,1.5,0,1,1,1.517,2.587L223.526,264.08,131.357,318.3A1.489,1.489,0,0,1,130.6,318.51Z" fill="#422f01"/></g><g id="change1_25"><path d="M397.772,161.57a1.5,1.5,0,0,1-1.5-1.437l-3.559-84.592a1.5,1.5,0,0,1,3-.126l3.559,84.592a1.5,1.5,0,0,1-1.435,1.562Z" fill="#422f01"/></g><g id="change1_26"><path d="M297.94,123.31a1.5,1.5,0,0,1-.759-2.794L373.37,75.867,268.756,14.473,191.145,60.035a1.5,1.5,0,0,1-1.518-2.587L268,11.44a1.5,1.5,0,0,1,1.519,0L377.094,74.575a1.5,1.5,0,0,1,0,2.587L298.7,123.1A1.491,1.491,0,0,1,297.94,123.31Z" fill="#422f01"/></g><g id="change1_27"><path d="M130.6,221.378a1.5,1.5,0,0,1-.747-.2L21.31,158.86a1.5,1.5,0,0,1-.012-2.594l84.313-49.5a1.5,1.5,0,0,1,1.518,2.587L25.044,157.545l105.545,60.6,81.026-47.483a1.5,1.5,0,1,1,1.516,2.587l-81.776,47.924A1.49,1.49,0,0,1,130.6,221.378Z" fill="#422f01"/></g></svg>