<?xml version="1.0" encoding="UTF-8" standalone="no"?><svg xmlns="http://www.w3.org/2000/svg" xmlns:xlink="http://www.w3.org/1999/xlink" data-name="Layer 2" fill="#000000" height="290.2" preserveAspectRatio="xMidYMid meet" version="1" viewBox="-1.5 -16.8 241.8 290.2" width="241.8" zoomAndPan="magnify"><defs><clipPath id="a"><path d="M117.844 200.097L117.609 116.96 157.257 94.068 157.493 177.205 117.844 200.097z" fill="none"/></clipPath></defs><g id="change1_1"><path d="M86.566,273.084c-11.827,0-22.536-3.042-31.59-9.136-18.711-12.591-28.014-36.64-26.192-67.714,1.8-30.789,14.324-64.874,35.255-95.977s47.792-55.538,75.634-68.8c28.1-13.39,53.883-13.827,72.6-1.236s28.013,36.641,26.192,67.715c-1.805,30.788-14.325,64.874-35.257,95.977h0c-20.931,31.1-47.791,55.537-75.633,68.8C113.066,269.623,99.181,273.084,86.566,273.084Zm94.1-249c-12.166,0-25.611,3.363-39.7,10.077C113.6,47.2,87.164,71.268,66.528,101.932s-32.977,64.217-34.75,94.476c-1.756,29.974,7.077,53.077,24.873,65.052S99.173,272.92,126.28,260c27.365-13.038,53.8-37.106,74.435-67.77s32.976-64.217,34.75-94.477c1.757-29.973-7.077-53.075-24.873-65.051C202.047,26.956,191.9,24.085,180.665,24.085Z" fill="#422f01"/></g><g id="change1_2"><path d="M97.283,242.03a34.78,34.78,0,0,1-19.772-5.686c-12.648-8.512-18.4-25.508-16.189-47.858,2.176-22.018,11.827-46.7,27.175-69.511S123.08,77.93,142.658,67.623c19.87-10.463,37.78-11.538,50.432-3.026s18.4,25.509,16.188,47.858c-2.175,22.018-11.827,46.7-27.175,69.512s-34.583,41.044-54.161,51.352C116.934,239.114,106.526,242.03,97.283,242.03ZM173.274,61.908c-24.9,0-57.954,22.582-82.288,58.742-30.942,45.977-36.235,96.761-11.8,113.206,11.689,7.865,28.508,6.732,47.359-3.192,19.146-10.08,37.993-27.97,53.069-50.373h0c30.942-45.978,36.235-96.762,11.8-113.2A31.911,31.911,0,0,0,173.274,61.908Z" fill="#422f01"/></g><g id="change1_3"><path d="M53.863,262.811a1.492,1.492,0,0,1-.871-.28c-4.207-3.007-8.161-5.963-12.347-9.093-4.544-3.4-9.244-6.913-14.544-10.693C7.683,229.613-1.514,205.44.2,174.677c1.712-30.661,14.139-64.613,34.993-95.6C78.562,14.636,145.054-16.785,183.426,9.035c5.673,3.819,11.612,8.306,17.357,12.645,3.818,2.885,7.766,5.867,11.522,8.563a1.5,1.5,0,0,1-1.75,2.437c-3.785-2.717-7.748-5.711-11.58-8.606-5.713-4.315-11.62-8.777-17.225-12.55C144.756-13.368,80.128,17.682,37.686,80.751,17.129,111.3,4.882,144.714,3.2,174.845c-1.658,29.7,7.093,52.944,24.643,65.457,5.328,3.8,10.042,7.324,14.6,10.732,4.173,3.12,8.114,6.068,12.294,9.056a1.5,1.5,0,0,1-.873,2.721Z" fill="#422f01"/></g><g id="change1_4"><path d="M160.69,26.809a1.488,1.488,0,0,1-.736-.194L125.36,7.089a1.5,1.5,0,0,1,1.475-2.613L161.429,24a1.5,1.5,0,0,1-.739,2.806Z" fill="#422f01"/></g><g id="change1_5"><path d="M122.589,44.4a1.482,1.482,0,0,1-.786-.223L90.311,24.759a1.5,1.5,0,0,1,1.575-2.554l31.491,19.422a1.5,1.5,0,0,1-.788,2.776Z" fill="#422f01"/></g><g id="change1_6"><path d="M93.92,67.846a1.49,1.49,0,0,1-.838-.257L63.237,47.418a1.5,1.5,0,0,1,1.679-2.486L94.762,65.1a1.5,1.5,0,0,1-.842,2.743Z" fill="#422f01"/></g><g id="change1_7"><path d="M67.66,99.408a1.489,1.489,0,0,1-.853-.268L37.381,78.731a1.5,1.5,0,0,1,1.71-2.465L68.517,96.675a1.5,1.5,0,0,1-.857,2.733Z" fill="#422f01"/></g><g id="change1_8"><path d="M47.772,129.847a1.492,1.492,0,0,1-.853-.267L19.111,110.293a1.5,1.5,0,0,1,1.71-2.465l27.808,19.287a1.5,1.5,0,0,1-.857,2.732Z" fill="#422f01"/></g><g id="change1_9"><path d="M34.678,168.992a1.5,1.5,0,0,1-.854-.267L5,148.732a1.5,1.5,0,0,1,1.71-2.465L35.534,166.26a1.5,1.5,0,0,1-.856,2.732Z" fill="#422f01"/></g><g id="change1_10"><path d="M30.113,208.434a1.494,1.494,0,0,1-.854-.268L.774,188.409a1.5,1.5,0,0,1,1.71-2.465L30.969,205.7a1.5,1.5,0,0,1-.856,2.733Z" fill="#422f01"/></g><g style="isolation:isolate"><g clip-path="url(#a)" id="change1_11"><path d="M138.818,104.714a9.839,9.839,0,0,0-4.461,7.654c0,.722-.009,1.423-.007,2.09,0,.782-.023.8-.68,1.319a38.436,38.436,0,0,0-7.212,7.3,33.545,33.545,0,0,0-6.192,13.113,26.359,26.359,0,0,0-.338,9.41c.424,2.945,1.467,5.26,3.472,6.417a11.655,11.655,0,0,0,3.5,1.256,26.088,26.088,0,0,0,9.483-.287,16.871,16.871,0,0,1,6.2-.172,3.468,3.468,0,0,1,2.925,2.971,17.069,17.069,0,0,1,.227,3.594,13.476,13.476,0,0,1-4.208,8.823,18.8,18.8,0,0,1-3.389,2.555,11.871,11.871,0,0,1-3.571,1.4c-2.262.461-3.952-.187-4.681-2.463a15.6,15.6,0,0,1-.545-2.757c-.125-.979-.887-1.347-1.806-.861-.134.07-.27.147-.406.225s-.271.159-.405.236q-1.485.846-2.972,1.705t-2.972,1.727c-.264.152-.528.3-.792.454q-.2.114-.4.232a3.533,3.533,0,0,0-1.826,3.42c.021.326.073.634.093.961a15.075,15.075,0,0,0,1.436,5.836c1.589,3.153,4.418,4.129,7.826,4.049a15.854,15.854,0,0,0,4.877-.956c2.543-.888,2.541-1.453,2.545-.029l0,1.379c.015,2.832,2.019,3.971,4.488,2.546l.047-.028.006,0a9.822,9.822,0,0,0,4.411-7.654c0-.561.009-1.13.008-1.687,0-.976-.01-.987.845-1.679a38.19,38.19,0,0,0,5.472-5.437,32.534,32.534,0,0,0,7.039-14.117,27.211,27.211,0,0,0,.548-7.408,15.575,15.575,0,0,0-1.462-6.07c-1.254-2.421-3.374-3.424-5.818-3.887a25.568,25.568,0,0,0-9.016.268,17.266,17.266,0,0,1-6.952.052,3.22,3.22,0,0,1-2.494-2.476,12.936,12.936,0,0,1,.389-7.154,12.025,12.025,0,0,1,3.495-5.531,15.874,15.874,0,0,1,2.644-1.937q.4-.231.8-.428c2.816-1.376,4.857-.982,5.906,1.469a10.415,10.415,0,0,1,.706,2.893c.159,1.324.891,1.559,2,.917.03-.017.061-.035.091-.054.506-.3,1.011-.6,1.515-.889.756-.437,1.51-.865,2.265-1.3v-.015c.837-.483,1.674-.955,2.511-1.439q.784-.451,1.569-.924a3.121,3.121,0,0,0,1.616-2.866,30.74,30.74,0,0,0-.536-4.07c-.861-3.809-2.882-6.1-6-6.883a12.346,12.346,0,0,0-6.611.488c-.422.133-.729-.115-.731-.614l-.006-2.12c0-2.843-2.013-3.99-4.484-2.563" fill="#422f01"/></g></g></svg>