<?xml version="1.0" encoding="UTF-8" standalone="no"?><svg xmlns="http://www.w3.org/2000/svg" xmlns:xlink="http://www.w3.org/1999/xlink" data-name="Layer 2" fill="#000000" height="333.8" preserveAspectRatio="xMidYMid meet" version="1" viewBox="-0.0 -1.4 267.7 333.8" width="267.7" zoomAndPan="magnify"><defs><clipPath id="a"><path d="M118.823 83.242L118.726 49.039 135.039 39.621 135.135 73.823 118.823 83.242z" fill="none"/></clipPath></defs><g id="change1_1"><path d="M219.769,83.791a1.5,1.5,0,0,1-.778-.218L174.82,56.765a1.5,1.5,0,0,1,.006-2.568L219,27.644a1.5,1.5,0,0,1,1.519-.015l46.468,26.68a1.5,1.5,0,0,1,0,2.6L220.516,83.592A1.5,1.5,0,0,1,219.769,83.791ZM178.5,55.489,219.791,80.55l43.433-24.94L219.787,30.669Z" fill="#422f01"/></g><g id="change1_2"><path d="M132.355,166.77a1.49,1.49,0,0,1-.718-.184L86.069,141.7a1.5,1.5,0,0,1-.031-2.615L131.4,112.906a1.5,1.5,0,0,1,1.46-.022l45.362,24.384a1.5,1.5,0,0,1,.053,2.613l-45.157,26.68A1.5,1.5,0,0,1,132.355,166.77Zm-42.5-26.419,42.474,23.194,42.133-24.894-42.282-22.728Z" fill="#422f01"/></g><g id="change1_3"><path d="M45.67,265.77a1.486,1.486,0,0,1-.778-.218L.722,238.744a1.5,1.5,0,0,1,.005-2.568L44.9,209.623a1.5,1.5,0,0,1,1.52-.016l46.468,26.681a1.5,1.5,0,0,1,0,2.6L46.417,265.571A1.5,1.5,0,0,1,45.67,265.77ZM4.4,237.467l41.29,25.061,43.435-24.939L45.688,212.647Z" fill="#422f01"/></g><g id="change1_4"><path d="M132.516,284.727a1.5,1.5,0,0,1-1.5-1.5V166.308a1.5,1.5,0,0,1,3,0v114.33l42-24.067V138.589a1.5,1.5,0,0,1,3,0V257.44a1.5,1.5,0,0,1-.754,1.3l-45,25.787A1.5,1.5,0,0,1,132.516,284.727Z" fill="#422f01"/></g><g id="change1_5"><path d="M175.6,138.913a1.5,1.5,0,0,1-1.5-1.5V55.483a1.5,1.5,0,0,1,3,0v81.93A1.5,1.5,0,0,1,175.6,138.913Z" fill="#422f01"/></g><g id="change1_6"><path d="M220.917,231.876a1.487,1.487,0,0,1-.809-.238l-43.4-27.829a1.5,1.5,0,1,1,1.619-2.525L219.4,227.619,218.269,82.3a1.5,1.5,0,0,1,1.488-1.512h.012a1.5,1.5,0,0,1,1.5,1.489l1.148,148.084a1.5,1.5,0,0,1-1.5,1.512Z" fill="#422f01"/></g><g id="change1_7"><path d="M220.918,231.876a1.5,1.5,0,0,1-.793-2.774l44.612-27.771V55.61a1.5,1.5,0,0,1,3,0V202.164a1.5,1.5,0,0,1-.707,1.273l-45.32,28.212A1.5,1.5,0,0,1,220.918,231.876Z" fill="#422f01"/></g><g id="change1_8"><path d="M45.67,332.344a1.5,1.5,0,0,1-1.5-1.5V264.27a1.5,1.5,0,0,1,3,0v63.981l44.888-25.837-1.419-64.792a1.5,1.5,0,1,1,3-.067l1.438,65.682a1.5,1.5,0,0,1-.751,1.333L46.418,332.144A1.49,1.49,0,0,1,45.67,332.344Z" fill="#422f01"/></g><g id="change1_9"><path d="M45.668,332.344a1.5,1.5,0,0,1-.78-.219l-44.17-27A1.5,1.5,0,0,1,0,303.844V237.462a1.5,1.5,0,0,1,3,0V303l43.452,26.56a1.5,1.5,0,0,1-.784,2.78Z" fill="#422f01"/></g><g id="change1_10"><path d="M85.6,235.333h-.019a1.5,1.5,0,0,1-1.481-1.52l1.192-93.445a1.5,1.5,0,0,1,1.5-1.481h.019a1.5,1.5,0,0,1,1.481,1.519L87.1,233.852A1.5,1.5,0,0,1,85.6,235.333Z" fill="#422f01"/></g><g id="change1_11"><path d="M132.515,284.727a1.49,1.49,0,0,1-.777-.218L91.829,260.284a1.5,1.5,0,0,1,1.556-2.565l39.909,24.226a1.5,1.5,0,0,1-.779,2.782Z" fill="#422f01"/></g><g id="change1_12"><path d="M105.835,114.091a23.545,23.545,0,0,1-13.364-3.848C76.283,99.349,77.848,68.59,95.959,41.676c8.7-12.924,19.874-23.084,31.468-28.608,11.855-5.649,22.769-5.806,30.738-.445,16.187,10.894,14.622,41.653-3.49,68.566h0C140.906,101.651,121.473,114.091,105.835,114.091ZM144.667,11.717a37.559,37.559,0,0,0-15.95,4.059c-11.116,5.3-21.866,15.089-30.268,27.575-17.189,25.542-19.119,54.432-4.3,64.4s40.852-2.7,58.041-28.24,19.117-54.432,4.3-64.4A20.81,20.81,0,0,0,144.667,11.717Zm8.764,68.635h0Z" fill="#422f01"/></g><g id="change1_13"><path d="M110.364,101.376a15.164,15.164,0,0,1-8.622-2.49C96.256,95.2,93.754,87.912,94.7,78.379c.909-9.2,4.931-19.5,11.325-29s14.422-17.107,22.6-21.414c8.477-4.463,16.165-4.888,21.651-1.2,11.207,7.542,9.327,29.29-4.28,49.51-6.4,9.5-14.422,17.107-22.6,21.414A28.467,28.467,0,0,1,110.364,101.376Zm31.273-74.1a25.523,25.523,0,0,0-11.616,3.34c-7.749,4.08-15.389,11.337-21.51,20.434s-9.969,18.908-10.83,27.623c-.828,8.382,1.209,14.677,5.736,17.723S114.541,98.961,122,95.036c7.749-4.08,15.389-11.337,21.51-20.434h0c12.457-18.511,14.743-38.853,5.095-45.346A12.246,12.246,0,0,0,141.637,27.277Z" fill="#422f01"/></g><g id="change1_14"><path d="M92.505,109.925a1.492,1.492,0,0,1-.871-.28c-1.738-1.241-3.366-2.46-5.091-3.75-1.867-1.4-3.8-2.839-5.971-4.389C64.428,90,65.975,59.888,84.094,32.963c8.7-12.925,19.873-23.085,31.468-28.609,11.855-5.649,22.77-5.8,30.737-.445,2.353,1.585,4.807,3.438,7.179,5.23,1.566,1.183,3.187,2.408,4.724,3.51a1.5,1.5,0,0,1-1.75,2.438c-1.566-1.125-3.2-2.36-4.782-3.554-2.34-1.768-4.76-3.6-7.046-5.134-7.052-4.746-16.916-4.51-27.771.663-11.118,5.3-21.867,15.09-30.27,27.576-16.918,25.14-18.833,54.041-4.27,64.425,2.2,1.57,4.146,3.024,6.027,4.43,1.711,1.28,3.327,2.489,5.039,3.712a1.5,1.5,0,0,1-.874,2.72Z" fill="#422f01"/></g><g id="change1_15"><path d="M136.452,12.837a1.49,1.49,0,0,1-.736-.194L121.485,4.61A1.5,1.5,0,0,1,122.959,2l14.232,8.032a1.5,1.5,0,0,1-.739,2.807Z" fill="#422f01"/></g><g id="change1_16"><path d="M120.778,20.075a1.494,1.494,0,0,1-.786-.223l-12.955-7.99a1.5,1.5,0,1,1,1.575-2.554l12.955,7.99a1.5,1.5,0,0,1-.789,2.777Z" fill="#422f01"/></g><g id="change1_17"><path d="M108.984,29.719a1.49,1.49,0,0,1-.838-.257l-12.278-8.3a1.5,1.5,0,0,1,1.679-2.485l12.278,8.3a1.5,1.5,0,0,1-.841,2.743Z" fill="#422f01"/></g><g id="change1_18"><path d="M98.181,42.7a1.489,1.489,0,0,1-.853-.268l-12.106-8.4a1.5,1.5,0,0,1,1.71-2.465l12.106,8.4a1.5,1.5,0,0,1-.857,2.733Z" fill="#422f01"/></g><g id="change1_19"><path d="M90,55.225a1.493,1.493,0,0,1-.854-.267l-11.44-7.935a1.5,1.5,0,0,1,1.71-2.465l11.44,7.935A1.5,1.5,0,0,1,90,55.225Z" fill="#422f01"/></g><g id="change1_20"><path d="M84.612,71.329a1.49,1.49,0,0,1-.853-.267L71.9,62.837a1.5,1.5,0,1,1,1.71-2.465L85.469,68.6a1.5,1.5,0,0,1-.857,2.732Z" fill="#422f01"/></g><g id="change1_21"><path d="M82.734,87.555a1.491,1.491,0,0,1-.853-.268L70.163,79.159a1.5,1.5,0,1,1,1.71-2.464l11.718,8.127a1.5,1.5,0,0,1-.857,2.733Z" fill="#422f01"/></g><g style="isolation:isolate"><g clip-path="url(#a)" id="change1_22"><path d="M127.454,44a4.054,4.054,0,0,0-1.833,3.145c-.006.3,0,.591,0,.862,0,.323-.012.338-.28.544a15.776,15.776,0,0,0-2.965,3,13.812,13.812,0,0,0-2.549,5.4,11.029,11.029,0,0,0-.143,3.874,3.4,3.4,0,0,0,1.434,2.633,4.981,4.981,0,0,0,1.44.521,10.755,10.755,0,0,0,3.9-.121,6.923,6.923,0,0,1,2.551-.07,1.422,1.422,0,0,1,1.2,1.226,6.781,6.781,0,0,1,.094,1.474,5.51,5.51,0,0,1-1.729,3.629,7.79,7.79,0,0,1-1.4,1.059,4.862,4.862,0,0,1-1.456.571,1.469,1.469,0,0,1-1.928-1.018,6.584,6.584,0,0,1-.227-1.133c-.053-.4-.36-.549-.743-.35-.109.055-.224.122-.332.184l-2.445,1.412c-.16.092-.326.188-.486.288a1.458,1.458,0,0,0-.757,1.407c.014.132.033.26.04.4a6.241,6.241,0,0,0,.589,2.4A3.154,3.154,0,0,0,122.642,77a6.347,6.347,0,0,0,2.007-.4c1.048-.362,1.047-.6,1.049-.01v.565c0,1.172.83,1.637,1.841,1.054l.023-.014.007,0a4.042,4.042,0,0,0,1.813-3.148l0-.69c0-.4,0-.411.35-.694a15.7,15.7,0,0,0,2.251-2.233,13.446,13.446,0,0,0,2.9-5.812,11.257,11.257,0,0,0,.222-3.045,6.415,6.415,0,0,0-.6-2.5,3.111,3.111,0,0,0-2.39-1.6,10.519,10.519,0,0,0-3.709.113,7.172,7.172,0,0,1-2.865.023,1.316,1.316,0,0,1-1.02-1.021,5.26,5.26,0,0,1,.158-2.942,4.953,4.953,0,0,1,1.439-2.278,6.48,6.48,0,0,1,1.086-.8c.11-.063.221-.122.331-.176,1.156-.564,2-.405,2.432.61a4.646,4.646,0,0,1,.291,1.184c.058.546.363.643.822.378l.036-.021c.172-.105.345-.206.517-.3.346-.2.692-.393,1.041-.595v-.007c.37-.214.743-.423,1.116-.638q.279-.16.557-.328a1.3,1.3,0,0,0,.668-1.186,13.709,13.709,0,0,0-.222-1.673,3.372,3.372,0,0,0-2.471-2.828,5.05,5.05,0,0,0-2.717.2c-.172.048-.3-.047-.3-.252l0-.881c0-1.166-.829-1.637-1.844-1.051" fill="#422f01"/></g></g></svg>