<?xml version="1.0" encoding="UTF-8" standalone="no"?><svg xmlns="http://www.w3.org/2000/svg" xmlns:xlink="http://www.w3.org/1999/xlink" data-name="Layer 1" fill="#80f0ff" height="434" preserveAspectRatio="xMidYMid meet" version="1" viewBox="0.0 0.0 434.0 434.0" width="434" zoomAndPan="magnify"><g id="change1_1"><path d="M432,215a211.61,211.61,0,0,1-150.62-62.38A211.65,211.65,0,0,1,219,2a2,2,0,0,0-4,0,211.65,211.65,0,0,1-62.38,150.62A211.61,211.61,0,0,1,2,215a2,2,0,0,0,0,4,211.65,211.65,0,0,1,150.62,62.38A211.65,211.65,0,0,1,215,432a2,2,0,0,0,4,0c0-117.45,95.55-213,213-213a2,2,0,0,0,0-4ZM217,402.4a215.38,215.38,0,0,0-61.56-123.85A215.42,215.42,0,0,0,31.68,217a215.38,215.38,0,0,0,123.77-61.56A215.37,215.37,0,0,0,217,31.68a215.37,215.37,0,0,0,61.55,123.76A215.34,215.34,0,0,0,402.4,217C306.38,230.17,230.17,306.38,217,402.4Z" fill="inherit"/></g></svg>