<?xml version="1.0" encoding="UTF-8" standalone="no"?><svg xmlns="http://www.w3.org/2000/svg" fill="#000000" height="424.15pt" version="1.1" viewBox="0 0 484.25 424.15" width="484.25pt">
 <g fill="#000000" id="change1_1">
  <path d="m172.13 408.84c-0.02 0.22-0.1 0.31-0.84 0.31h-3-12.13-41.41-88.078-9.91-1.567c-0.66 0-0.027-1.97-0.609 1.68 0.012-0.06 0.023-0.13 0.035-0.21 0.535-3.39 1.074-6.78 1.613-10.17 3.043-19.17 6.086-38.34 9.125-57.52 9.86-62.11 19.719-124.23 29.575-186.35 7.101-44.74 14.203-89.49 21.3-134.24 0.231-1.438 0.457-2.875 0.688-4.317 0.238-1.515 0.055-3.027 0.898-3.027h21.516 92.834 35.1 6.79c0.95 0 0.27 1.594 0.78-1.637-0.05 0.297-0.09 0.59-0.14 0.883-2.03 12.789-4.06 25.578-6.09 38.363-9.27 58.405-18.54 116.82-27.81 175.22-8.42 53.11-16.85 106.22-25.28 159.32l-3.12 19.71c-0.64 4.03 0.97 8.05 5.24 9.22 3.6 1 8.58-1.19 9.22-5.23 5.43-34.21 10.86-68.41 16.28-102.62 10.06-63.35 20.11-126.71 30.16-190.06 3.85-24.211 7.69-48.418 11.53-72.621 1.11-7.016 2.22-14.031 3.34-21.043 0.52-3.293 1.58-7.117 1.31-10.461-0.68-8.41-7.87-14.039-16.03-14.039-2.86 0.0000938-5.71 0.0000938-8.57 0.0000938h-37.27-91.743-18.258c-5.894 0-11.582 3.6133-13.882 9.0547-0.278 0.6562-1.45 6.1212-1.161 4.2852-0.015 0.102-0.031 0.199-0.046 0.297-0.188 1.187-0.375 2.375-0.563 3.562-2.5 15.743-4.996 31.485-7.496 47.227-9.574 60.338-19.152 120.68-28.727 181.03-7.89 49.73-15.785 99.47-23.679 149.21-0.6136 3.88-1.2308 7.76-1.8441 11.64-1.0546 6.63 1.9219 12.44 7.5782 15.95 3.2109 2 6.9769 1.9 10.582 1.9h77.621 57.578 15.91c9.53 0 16.84-5.27 17.65-15.31 0.78-9.64-14.23-9.57-15 0" fill="inherit"/>
  <path d="m406.86 408.84c-0.02 0.22-0.1 0.31-0.84 0.31h-3-12.13-41.41-88.08-9.91-1.57c-0.66 0-0.03-1.97-0.61 1.68 0.01-0.06 0.03-0.13 0.03-0.21l1.62-10.17c3.04-19.17 6.09-38.34 9.13-57.52 9.86-62.11 19.71-124.23 29.57-186.35 7.1-44.74 14.2-89.49 21.3-134.24 0.23-1.438 0.46-2.875 0.68-4.317 0.25-1.515 0.06-3.027 0.91-3.027h21.51 92.83 35.1 6.8c0.94 0 0.26 1.594 0.77-1.637-0.04 0.297-0.09 0.59-0.14 0.883-2.03 12.789-4.06 25.578-6.08 38.363-9.27 58.405-18.54 116.82-27.81 175.22-8.42 53.11-16.85 106.22-25.28 159.32-1.04 6.57-2.09 13.14-3.13 19.71-0.64 4.03 0.97 8.05 5.24 9.22 3.61 1 8.59-1.19 9.23-5.23 5.43-34.21 10.85-68.41 16.28-102.62 10.06-63.35 20.11-126.71 30.16-190.06 3.84-24.211 7.68-48.418 11.52-72.621 1.12-7.016 2.23-14.031 3.34-21.043 0.52-3.293 1.58-7.117 1.31-10.461-0.68-8.41-7.87-14.039-16.03-14.039-2.85 0.0000938-5.71 0.0000938-8.56 0.0000938h-37.27-91.75-18.25c-5.9 0-11.59 3.6133-13.89 9.0547-0.28 0.6562-1.45 6.1212-1.16 4.2852-0.01 0.102-0.03 0.199-0.04 0.297-0.19 1.187-0.38 2.375-0.57 3.562-2.5 15.743-5 31.485-7.49 47.227-9.58 60.338-19.15 120.68-28.73 181.03-7.89 49.73-15.78 99.47-23.68 149.21-0.62 3.88-1.23 7.76-1.85 11.64-1.05 6.63 1.93 12.44 7.58 15.95 3.22 2 6.98 1.9 10.59 1.9h77.62 57.57 15.92c9.52 0 16.84-5.27 17.65-15.31 0.77-9.64-14.23-9.57-15 0" fill="inherit"/>
 </g>
</svg>