<?xml version="1.0" encoding="UTF-8" standalone="no"?><svg xmlns="http://www.w3.org/2000/svg" xmlns:xlink="http://www.w3.org/1999/xlink" fill="#000000" height="456.3" preserveAspectRatio="xMidYMid meet" version="1" viewBox="0.0 0.0 456.4 456.3" width="456.4" zoomAndPan="magnify"><g><g id="change1_2"><path d="M228.1,41.1c60.9,0,68.1,0.2,92.2,1.3c22.2,1,34.3,4.7,42.4,7.9c10.6,4.1,18.2,9.1,26.2,17.1 c8,8,12.9,15.6,17.1,26.2c3.1,8,6.8,20.1,7.9,42.4c1.1,24.1,1.3,31.3,1.3,92.2c0,60.9-0.2,68.1-1.3,92.2c-1,22.2-4.7,34.3-7.9,42.4 c-4.1,10.6-9.1,18.2-17.1,26.2c-8,8-15.6,12.9-26.2,17.1c-8,3.1-20.1,6.8-42.4,7.9c-24.1,1.1-31.3,1.3-92.2,1.3 c-60.9,0-68.1-0.2-92.2-1.3c-22.2-1-34.3-4.7-42.4-7.9c-10.6-4.1-18.2-9.1-26.2-17.1c-8-8-12.9-15.6-17.1-26.2 c-3.1-8-6.8-20.1-7.9-42.4c-1.1-24.1-1.3-31.3-1.3-92.2c0-60.9,0.2-68.1,1.3-92.2c1-22.2,4.7-34.3,7.9-42.4 c4.1-10.6,9.1-18.2,17.1-26.2c8-8,15.6-12.9,26.2-17.1c8-3.1,20.1-6.8,42.4-7.9C160,41.3,167.2,41.1,228.1,41.1 M228.1,0 c-62,0-69.7,0.3-94.1,1.4c-24.3,1.1-40.9,5-55.4,10.6c-15,5.8-27.7,13.6-40.4,26.3C25.6,51,17.8,63.7,12,78.7 c-5.6,14.5-9.5,31.1-10.6,55.4C0.3,158.4,0,166.2,0,228.1c0,62,0.3,69.7,1.4,94.1c1.1,24.3,5,40.9,10.6,55.4 c5.8,15,13.6,27.7,26.3,40.4c12.7,12.7,25.4,20.5,40.4,26.3c14.5,5.6,31.1,9.5,55.4,10.6c24.3,1.1,32.1,1.4,94.1,1.4 c62,0,69.7-0.3,94.1-1.4c24.3-1.1,40.9-5,55.4-10.6c15-5.8,27.7-13.6,40.4-26.3c12.7-12.7,20.5-25.4,26.3-40.4 c5.6-14.5,9.5-31.1,10.6-55.4c1.1-24.3,1.4-32.1,1.4-94.1c0-62-0.3-69.7-1.4-94.1c-1.1-24.3-5-40.9-10.6-55.4 c-5.8-15-13.6-27.7-26.3-40.4c-12.7-12.7-25.4-20.5-40.4-26.3c-14.5-5.6-31.1-9.5-55.4-10.6C297.9,0.3,290.1,0,228.1,0" fill="#ffffff"/></g><g id="change1_1"><path d="M228.1,111C163.4,111,111,163.4,111,228.1c0,64.7,52.5,117.2,117.2,117.2c64.7,0,117.2-52.4,117.2-117.2 C345.3,163.4,292.8,111,228.1,111 M228.1,304.2c-42,0-76-34-76-76c0-42,34-76,76-76c42,0,76,34,76,76 C304.2,270.1,270.1,304.2,228.1,304.2" fill="#ffffff"/></g><g id="change1_3"><path d="M377.3,106.4c0,15.1-12.3,27.4-27.4,27.4c-15.1,0-27.4-12.3-27.4-27.4c0-15.1,12.3-27.4,27.4-27.4 C365,79,377.3,91.2,377.3,106.4" fill="#ffffff"/></g></g></svg>