<?xml version="1.0" encoding="UTF-8" standalone="no"?><svg xmlns="http://www.w3.org/2000/svg" xmlns:xlink="http://www.w3.org/1999/xlink" fill="#000000" height="860.9" preserveAspectRatio="xMidYMid meet" version="1" viewBox="0.0 0.0 469.0 860.9" width="469" zoomAndPan="magnify"><g fill="#ffffff" id="change1_1"><path d="m222.53 174.37h190.84a8.7124 8.7124 0 0 1 8.7124 8.7124v7.5954a8.7124 8.7124 0 0 1 -8.7124 8.7124h-190.84a8.7124 8.7124 0 0 1 -8.7124 -8.7124v-7.5954a8.7124 8.7124 0 0 1 8.7124 -8.7124" fill="inherit" opacity="0.554" transform="translate(-94.853 -67.642)"/><path d="m257 139.52h121.9a8.7124 8.7124 0 0 1 8.7124 8.7124v7.5954a8.7124 8.7124 0 0 1 -8.7124 8.7124h-121.9a8.7124 8.7124 0 0 1 -8.7124 -8.7124v-7.5954a8.7124 8.7124 0 0 1 8.7124 -8.7124" fill="inherit" opacity="0.554" transform="translate(-94.853 -67.642)"/><path d="m274.82 106.85h86.258a7.1955 7.1955 0 0 1 7.1955 7.1955v6.273a7.1955 7.1955 0 0 1 -7.1955 7.1955h-86.258a7.1955 7.1955 0 0 1 -7.1955 -7.1955v-6.273a7.1955 7.1955 0 0 1 7.1955 -7.1955" fill="inherit" opacity="0.554" transform="translate(-94.853 -67.642)"/><path d="m312.33 67.642h11.247a10.229 10.229 0 0 1 10.229 10.229v8.9179a10.229 10.229 0 0 1 -10.229 10.229h-11.247a10.229 10.229 0 0 1 -10.229 -10.229v-8.9179a10.229 10.229 0 0 1 10.229 -10.229" fill="inherit" opacity="0.554" transform="translate(-94.853 -67.642)"/><path d="m317.95 217.39a9.9672 18.572 0 0 1 9.9672 18.572v16.191a9.9672 18.572 0 0 1 -9.9672 18.572 9.9672 18.572 0 0 1 -9.9672 -18.572v-16.191a9.9672 18.572 0 0 1 9.9672 -18.572" fill="inherit" opacity="0.554" transform="translate(-94.853 -67.642)"/><path d="m94.853 252.33c27.258-16.349 56.221-35.264 92.833-35.837 22.309-0.96749 44.618-0.91583 66.927 17.525 21.172 20.266 25.796 53.093 31.786 84.882 0 0 6.4789 49.608 15.614 71.449 13.59 32.491 56.401 84.086 56.401 84.086 25.035 37.645 32.81 60.396 31.451 107.66-1.8374 48.849-39.715 60.135-69.86 82.767-29.614 19.845-47.97 37.98-51.826 57.764-6.8322 37.578 46.765 82.168 40.106 89.668-45.109-13.36-78.64-43.93-66.265-103.38 14.87-68.3 128.77-72.839 126.55-129.88-1.429-26.144-14.364-57.829-30.97-82.488-19.555-27.731-32.69-49.107-51.597-79.792-2.8774-4.6696-25.048 13.715-41.415 11.087 3.8796-14.345 25.893-30.978 24.865-38.943-9.6894-42.854-15.805-94.972-30.085-111.14-30.396-32.677-47.645-24.819-85.984-14.859 11.392 34.518 39.101 75.027 31.926 104.69z" fill="inherit" opacity="0.554" transform="translate(-94.853 -67.642)"/><path d="m532.79 285.74c31.097-17.871-55.044-68.837-91.655-69.424-22.309-0.99066-44.029 2.8759-66.338 21.759-32.596 37.871-53.421 99.124-42.686 154.02 11.824 60.735 83.54 113.2 83.047 171.96 2.794 87.22-143.61 105.74-132.09 175.58 7.3926 51.471 44.476 44.639 55.502 23.665 6.6024-12.56-0.48233-48.358-32.737-34.233 4.3153-20.58 32.046-36.022 66.18-55.944 27.231-18.544 71.386-63.717 72.918-101.42 5.8943-63.422-52.577-115.26-69.248-154.1-2.4685-5.8525 12.165-2.4202 21.177-8.6495-9.0477-16.804-37.554-27.253-38.218-31.327-4.2299-42.643 9.6463-85.628 24.923-101.63 12.94-13.042 37.402-27.553 61.198-27.563 17.773 5.0754 26.045 9.4324 45.343 28.331-52.456 61.18-74.258 86.607-65.388 120.11s30.155-66.36 108.07-111.14z" fill="inherit" opacity="0.554" transform="translate(-94.853 -67.642)"/><path d="m257-863.17h121.9a8.7124 8.7124 0 0 1 8.7124 8.7124v7.5954a8.7124 8.7124 0 0 1 -8.7124 8.7124h-121.9a8.7124 8.7124 0 0 1 -8.7124 -8.7124v-7.5954a8.7124 8.7124 0 0 1 8.7124 -8.7124" fill="inherit" opacity="0.554" transform="matrix(1 0 0 -1 -94.853 -67.642)"/><path d="m274.82-892.57h86.258a7.1955 7.1955 0 0 1 7.1955 7.1955v6.273a7.1955 7.1955 0 0 1 -7.1955 7.1955h-86.258a7.1955 7.1955 0 0 1 -7.1955 -7.1955v-6.273a7.1955 7.1955 0 0 1 7.1955 -7.1955" fill="inherit" opacity="0.554" transform="matrix(1 0 0 -1 -94.853 -67.642)"/><path d="m312.33-928.51h11.247a10.229 10.229 0 0 1 10.229 10.229v8.9178a10.229 10.229 0 0 1 -10.229 10.229h-11.247a10.229 10.229 0 0 1 -10.229 -10.229v-8.9178a10.229 10.229 0 0 1 10.229 -10.229" fill="inherit" opacity="0.554" transform="matrix(1 0 0 -1 -94.853 -67.642)"/></g></svg>